<mxfile host="app.diagrams.net" modified="2022-05-03T19:30:24.996Z" agent="5.0 (Windows NT 10.0; Win64; x64) AppleWebKit/537.36 (KHTML, like Gecko) Chrome/100.0.4896.75 Safari/537.36" etag="J-6F8ywCmd_9DPjjLcnU" version="17.4.6" type="github">
  <diagram id="WR9EKpk0483bzXjOwZAH" name="第 1 页">
    <mxGraphModel dx="1422" dy="762" grid="1" gridSize="10" guides="1" tooltips="1" connect="1" arrows="1" fold="1" page="1" pageScale="1" pageWidth="827" pageHeight="1169" math="0" shadow="0">
      <root>
        <mxCell id="0" />
        <mxCell id="1" parent="0" />
        <mxCell id="wTssG9ojI0n9Z-d3Preo-3" value="&amp;lt;&amp;lt;operate&amp;gt;&amp;gt;" style="rounded=0;orthogonalLoop=1;jettySize=auto;html=1;endArrow=block;endFill=0;" edge="1" parent="1" source="R4tkwJN93uP0G5gPUMAn-1" target="wTssG9ojI0n9Z-d3Preo-1">
          <mxGeometry relative="1" as="geometry" />
        </mxCell>
        <mxCell id="wTssG9ojI0n9Z-d3Preo-5" value="&#xa;&#xa;&lt;span style=&quot;color: rgb(0, 0, 0); font-family: helvetica; font-size: 11px; font-style: normal; font-weight: 400; letter-spacing: normal; text-align: center; text-indent: 0px; text-transform: none; word-spacing: 0px; background-color: rgb(255, 255, 255); display: inline; float: none;&quot;&gt;&amp;lt;&amp;lt;operate&amp;gt;&amp;gt;&lt;/span&gt;&#xa;&#xa;" style="edgeStyle=none;rounded=0;orthogonalLoop=1;jettySize=auto;html=1;endArrow=block;endFill=0;" edge="1" parent="1" source="R4tkwJN93uP0G5gPUMAn-1" target="R4tkwJN93uP0G5gPUMAn-2">
          <mxGeometry relative="1" as="geometry" />
        </mxCell>
        <mxCell id="R4tkwJN93uP0G5gPUMAn-1" value="管理员" style="shape=umlActor;verticalLabelPosition=bottom;verticalAlign=top;html=1;outlineConnect=0;" parent="1" vertex="1">
          <mxGeometry x="244" y="230" width="30" height="60" as="geometry" />
        </mxCell>
        <mxCell id="R4tkwJN93uP0G5gPUMAn-2" value="学生" style="shape=umlActor;verticalLabelPosition=bottom;verticalAlign=top;html=1;outlineConnect=0;" parent="1" vertex="1">
          <mxGeometry x="450" y="280" width="30" height="60" as="geometry" />
        </mxCell>
        <mxCell id="wTssG9ojI0n9Z-d3Preo-1" value="教师" style="shape=umlActor;verticalLabelPosition=bottom;verticalAlign=top;html=1;outlineConnect=0;" vertex="1" parent="1">
          <mxGeometry x="450" y="180" width="30" height="60" as="geometry" />
        </mxCell>
      </root>
    </mxGraphModel>
  </diagram>
</mxfile>
